<svg width="110" height="40" viewBox="0 0 110 40" fill="none" xmlns="http://www.w3.org/2000/svg">
<path d="M5.54998 26.0819H11.6946V30.6873H0V5H11.6946V9.52605H5.54998V15.5608H11.2982V19.928H5.54998V26.0819Z" fill="#121212"/>
<path d="M21.5251 24.335L18.5915 30.6873H13.0812L18.4726 20.3648L13.438 11.3127H19.2258L21.5251 17.1092L23.8244 11.3127H29.6122L24.5776 20.3648L29.969 30.6873H24.4587L21.5251 24.335Z" fill="#121212"/>
<path d="M41.4069 31.0844H40.5744C39.2265 31.0844 38.1429 30.7668 37.3237 30.1315V37H32.0115V11.3127H36.4912V12.7419C37.3104 11.5244 38.6715 10.9156 40.5744 10.9156H41.4069C44.684 10.9156 46.3226 12.6625 46.3226 16.1563V25.8437C46.3226 29.3375 44.684 31.0844 41.4069 31.0844ZM37.3237 15.5211V26.4789C37.3237 26.6907 37.3897 26.8759 37.5219 27.0347C37.6804 27.1936 37.8654 27.273 38.0769 27.273H40.2572C40.4687 27.273 40.6404 27.1936 40.7726 27.0347C40.9312 26.8759 41.0104 26.6907 41.0104 26.4789V15.5211C41.0104 15.3093 40.9312 15.1241 40.7726 14.9653C40.6404 14.8065 40.4687 14.727 40.2572 14.727H38.0769C37.8654 14.727 37.6804 14.8065 37.5219 14.9653C37.3897 15.1241 37.3237 15.3093 37.3237 15.5211Z" fill="#121212"/>
<path d="M58.1816 10.9156H59.2124V16.0769H56.5959C55.6974 16.0769 55.2481 16.5401 55.2481 17.4665V30.6873H49.9359V11.3127H54.7724V13.1787C55.5388 11.67 56.6752 10.9156 58.1816 10.9156Z" fill="#121212"/>
<path d="M70.9841 10.9156C74.2612 10.9156 75.8998 12.6625 75.8998 16.1563V22.4293H66.9009V26.4789C66.9009 26.6907 66.967 26.8759 67.0991 27.0347C67.2577 27.1936 67.4426 27.273 67.6541 27.273H69.8344C70.0459 27.273 70.2177 27.1936 70.3498 27.0347C70.5084 26.8759 70.5877 26.6907 70.5877 26.4789V24.335H75.8998V25.8437C75.8998 29.3375 74.2612 31.0844 70.9841 31.0844H66.5044C63.2273 31.0844 61.5887 29.3375 61.5887 25.8437V16.1563C61.5887 12.6625 63.2273 10.9156 66.5044 10.9156H70.9841ZM66.9009 18.9355H70.5877V15.3623C70.5877 15.1505 70.5084 14.9653 70.3498 14.8065C70.2177 14.6476 70.0459 14.5682 69.8344 14.5682H67.6541C67.4426 14.5682 67.2577 14.6476 67.0991 14.8065C66.967 14.9653 66.9009 15.1505 66.9009 15.3623V18.9355Z" fill="#121212"/>
<path d="M87.9342 18.5385C91.2113 18.5385 92.8499 20.2854 92.8499 23.7792V25.8437C92.8499 29.3375 91.2113 31.0844 87.9342 31.0844H83.5338C80.2567 31.0844 78.6181 29.3375 78.6181 25.8437V24.6129H83.5338V26.3598C83.5338 26.5715 83.5999 26.7568 83.732 26.9156C83.8906 27.0744 84.0756 27.1538 84.287 27.1538H87.5377C87.7492 27.1538 87.9209 27.0744 88.0531 26.9156C88.2116 26.7568 88.2909 26.5715 88.2909 26.3598V23.9777C88.2909 23.7659 88.2116 23.5806 88.0531 23.4218C87.9209 23.263 87.7492 23.1836 87.5377 23.1836H83.4545C80.1774 23.1836 78.5388 21.4367 78.5388 17.9429V16.1563C78.5388 12.6625 80.1774 10.9156 83.4545 10.9156H87.617C90.8941 10.9156 92.5327 12.6625 92.5327 16.1563V16.871H87.617V15.6402C87.617 15.4285 87.5377 15.2432 87.3792 15.0844C87.247 14.9256 87.0752 14.8462 86.8638 14.8462H83.8509C83.6395 14.8462 83.4545 14.9256 83.296 15.0844C83.1638 15.2432 83.0977 15.4285 83.0977 15.6402V17.7444C83.0977 17.9562 83.1638 18.1414 83.296 18.3002C83.4545 18.4591 83.6395 18.5385 83.8509 18.5385H87.9342Z" fill="#121212"/>
<path d="M105.084 18.5385C108.361 18.5385 110 20.2854 110 23.7792V25.8437C110 29.3375 108.361 31.0844 105.084 31.0844H100.684C97.4068 31.0844 95.7682 29.3375 95.7682 25.8437V24.6129H100.684V26.3598C100.684 26.5715 100.75 26.7568 100.882 26.9156C101.041 27.0744 101.226 27.1538 101.437 27.1538H104.688C104.899 27.1538 105.071 27.0744 105.203 26.9156C105.362 26.7568 105.441 26.5715 105.441 26.3598V23.9777C105.441 23.7659 105.362 23.5806 105.203 23.4218C105.071 23.263 104.899 23.1836 104.688 23.1836H100.605C97.3275 23.1836 95.6889 21.4367 95.6889 17.9429V16.1563C95.6889 12.6625 97.3275 10.9156 100.605 10.9156H104.767C108.044 10.9156 109.683 12.6625 109.683 16.1563V16.871H104.767V15.6402C104.767 15.4285 104.688 15.2432 104.529 15.0844C104.397 14.9256 104.225 14.8462 104.014 14.8462H101.001C100.79 14.8462 100.605 14.9256 100.446 15.0844C100.314 15.2432 100.248 15.4285 100.248 15.6402V17.7444C100.248 17.9562 100.314 18.1414 100.446 18.3002C100.605 18.4591 100.79 18.5385 101.001 18.5385H105.084Z" fill="#121212"/>
</svg>
